<?xml version="1.0" encoding="UTF-8"?>
<!-- Vermont outline extracted from Wikimedia Commons file "USA Vermont location map.svg" by Alexrk/Alexrk2, created with GeoTools. Source: https://commons.wikimedia.org/wiki/File:USA_Vermont_location_map.svg License: CC BY 3.0 / GFDL. -->
<svg xmlns="http://www.w3.org/2000/svg" viewBox="80 132 1116 1802" fill="none">
  <path d="M 643.9222,1604.9382 L 643.9583,1607.0001 L 642.7485,1608.7307 L 642.8312,1610.5576 L 647.9787,1617.7645 L 648.1985,1622.145 L 647.1586,1625.6248 L 643.1299,1628.7125 L 642.1406,1631.8929 L 643.005,1634.8647 L 644.3603,1636.7229 L 644.9672,1640.9703 L 646.9282,1643.8683 L 647.1697,1646.001 L 645.9932,1648.9402 L 641.5881,1655.3187 L 638.3223,1657.7275 L 635.4235,1662.4207 L 631.1578,1665.902 L 628.4878,1670.5881 L 629.2867,1674.0757 L 632.532,1678.929 L 631.1722,1688.7717 L 631.4637,1691.2878 L 634.0811,1697.0139 L 642.0434,1703.5908 L 641.7075,1707.1794 L 638.6949,1710.7938 L 633.8595,1710.2928 L 631.5475,1712.921 L 630.3239,1716.0835 L 630.0385,1719.2786 L 632.004,1724.4337 L 625.2597,1732.7925 L 623.6585,1733.0304 L 620.8969,1731.3076 L 614.8816,1736.245 L 608.4505,1737.6925 L 606.4201,1738.9758 L 600.8213,1739.6034 L 592.8467,1746.2029 L 591.5536,1750.3834 L 592.6801,1752.2494 L 594.8616,1753.5514 L 595.7927,1756.9377 L 595.6672,1766.9556 L 597.1885,1774.1002 L 597.1141,1776.7976 L 593.8878,1780.135 L 593.157,1783.2018 L 593.3397,1789.9062 L 592.1655,1792.504 L 588.2711,1797.0198 L 581.5042,1800.4755 L 581.6874,1802.0862 L 579.9229,1808.4656 L 579.8229,1813.9147 L 580.5598,1819.4586 L 578.989,1825.4452 L 580.9329,1828.8893 L 581.1488,1830.6509 L 583.473,1833.3817 L 584.3047,1836.2081 L 585.7305,1850.0798 L 587.2823,1854.4517 L 587.525,1859.7678 L 588.803,1862.889 L 600.5486,1873.9381 L 605.821,1882.2853 L 606.0908,1886.4144 L 602.502,1888.8831 L 601.4498,1891.0344 L 601.8101,1893.1508 L 603.463,1894.8051 L 606.3057,1894.3447 L 610.356,1891.8224 L 611.8779,1887.7305 L 615.6683,1888.0828 L 619.1351,1893.4689 L 622.2021,1895.3519 L 623.1677,1896.8094 L 625.6906,1908.7321 L 630.8241,1915.7172 L 633.7012,1921.3577 L 633.8162,1923.5612 L 439.1142,1915.9926 L 179.6567,1908.6519 L 171.5933,1865.1733 L 174.2916,1860.425 L 173.9863,1859.41 L 175.6142,1856.1223 L 173.7481,1851.0022 L 174.6781,1840.1499 L 178.4063,1840.6812 L 178.6101,1837.4548 L 183.3456,1683.1298 L 190.731,1508.8165 L 196.1494,1310.2974 L 196.0784,1308.804 L 195.6581,1306.2606 L 195.6042,1304.198 L 196.0911,1302.1703 L 198.8278,1299.3408 L 198.4086,1298.3274 L 199.106,1297.0642 L 198.3548,1295.7848 L 197.9178,1294.6826 L 197.4275,1292.0328 L 196.1528,1290.842 L 196.2216,1289.6683 L 194.2522,1288.4441 L 194.3616,1287.3241 L 195.5392,1287.1794 L 194.406,1286.3457 L 194.7669,1284.192 L 194.0996,1283.002 L 195.0806,1280.3326 L 191.8332,1278.9808 L 192.8814,1278.004 L 191.2419,1275.6372 L 191.0336,1274.0895 L 189.69,1273.1818 L 189.534,1271.7056 L 188.3636,1270.4728 L 186.2188,1269.1816 L 183.7836,1267.833 L 184.0812,1266.6625 L 181.138,1265.7112 L 178.8872,1264.1775 L 177.1932,1264.9949 L 176.95,1261.8831 L 174.9423,1260.5662 L 172.0952,1261.8099 L 169.8255,1261.1869 L 169.1792,1262.5029 L 168.9704,1261.0632 L 170.9464,1256.4658 L 168.262,1254.3113 L 170.2963,1250.2412 L 170.63,1246.7094 L 171.5516,1245.0394 L 170.0398,1240.3977 L 167.6646,1236.6449 L 166.407,1236.0398 L 165.0262,1236.8401 L 166.0927,1233.9771 L 166.3553,1230.5977 L 164.9051,1228.4813 L 165.1478,1224.4486 L 162.9896,1222.4077 L 160.3618,1225.7062 L 156.9516,1223.3815 L 156.6546,1222.2786 L 155.5008,1223.1854 L 152.9668,1223.0439 L 151.1846,1224.2891 L 149.1925,1224.1647 L 147.584,1222.6714 L 144.3188,1225.2745 L 142.7786,1223.8286 L 139.4967,1227.7549 L 138.1203,1226.9429 L 136.4336,1224.0745 L 130.1635,1226.2125 L 126.6506,1225.3966 L 126.3192,1226.7484 L 127.7888,1229.3618 L 124.5936,1234.0603 L 125.3537,1236.5134 L 124.1544,1237.5813 L 125.9438,1238.8071 L 126.3292,1240.6738 L 123.3982,1244.3923 L 123.6241,1245.7262 L 121.3361,1245.6002 L 120.2001,1246.5592 L 121.0702,1250.8992 L 118.3279,1251.5907 L 118.676,1253.4581 L 120.8403,1255.2026 L 119.2324,1257.4622 L 120.7281,1260.6526 L 120.2662,1262.5472 L 119.4228,1263.8516 L 116.222,1264.501 L 115.6829,1267.6681 L 113.7257,1268.0741 L 113.3932,1269.2656 L 108.872,1267.5204 L 101.6242,1261.7648 L 99.7287,1258.8411 L 95.1437,1256.8936 L 93.7046,1253.5562 L 95.426013,1242.4951 L 96.272739,1234.8335 L 95.608587,1227.175 L 93.255974,1217.2717 L 92.333148,1211.3119 L 99.351413,1199.1708 L 102.72562,1183.9925 L 103.48939,1178.5706 L 107.90779,1169.1315 L 112.85502,1160.2596 L 116.56369,1152.8899 L 127.3602,1146.9663 L 124.89019,1132.5573 L 134.40403,1111.1434 L 135.8273,1106.0568 L 134.2771,1099.4083 L 123.9284,1089.5438 L 123.1494,1084.2766 L 121.747,1080.4741 L 116.8372,1075.6355 L 115.1982,1072.2911 L 112.53404,1069.5774 L 115.18891,1063.4906 L 121.18824,1058.218 L 122.47208,1051.9281 L 122.0096,1048.5043 L 120.8658,1045.2882 L 125.3892,1029.5903 L 120.0969,1017.8902 L 113.165,1008.5724 L 109.7309,995.6287 L 106.2942,986.3047 L 106.2942,982.0922 L 107.9087,973.7241 L 107.8587,967.6085 L 103.50271,960.09723 L 104.3542,950.7524 L 104.0977,947.1653 L 107.7072,924.4534 L 107.7682,921.4014 L 106.7988,916.9137 L 102.86691,912.7199 L 98.339,908.0182 L 96.1087,904.7951 L 90.6509,900.1743 L 89.998,898.2361 L 93.764,880.6265 L 94.5435,872.2109 L 102.5958,854.5102 L 103.3076,849.4539 L 104.6518,846.2596 L 104.3659,840.287 L 102.0834,830.3906 L 104.3964,826.1711 L 106.5312,824.5245 L 109.3528,820.568 L 109.852,818.1755 L 109.4461,816.291 L 110.8819,813.2732 L 111.6781,807.3994 L 113.3682,804.0153 L 112.436,800.4018 L 112.6142,798.126 L 114.0122,795.3735 L 116.1093,793.8389 L 116.6934,791.9668 L 116.2486,784.7249 L 117.2103,783.5186 L 119.6038,783.0721 L 121.0735,779.5402 L 125.0338,777.5888 L 127.2197,774.2568 L 131.994,771.1526 L 132.0196,768.0859 L 135.3487,763.0342 L 135.8189,759.7668 L 138.0387,757.5711 L 138.5384,754.5276 L 142.7825,750.9865 L 142.4821,748.0745 L 146.3536,746.837 L 149.7005,743.3129 L 153.3982,743.4311 L 153.758,740.5253 L 155.6813,738.9597 L 159.4912,726.9025 L 160.5056,719.9904 L 159.786,715.5019 L 155.392,703.1819 L 153.1317,692.1965 L 153.2283,673.6839 L 151.3784,665.4978 L 147.328,655.7608 L 147.1604,649.88 L 147.9027,643.7667 L 158.2148,631.1464 L 161.2357,618.7183 L 168.7572,600.1847 L 170.1036,591.9644 L 169.2164,586.5355 L 166.4958,579.6693 L 167.2837,572.0921 L 167.0311,565.5145 L 166.1999,561.1208 L 164.1062,555.5363 L 162.838,544.1839 L 159.4173,538.8102 L 154.9911,533.8433 L 154.3288,524.7775 L 150.0497,521.4495 L 149.0159,516.5067 L 144.9084,510.7659 L 145.0494,507.0753 L 142.1351,503.6041 L 135.035,499.3963 L 133.2033,495.7968 L 129.1752,491.8628 L 127.5329,488.4343 L 124.9517,485.4757 L 124.5536,480.6371 L 121.1212,474.9764 L 123.9212,470.2009 L 123.8973,466.9785 L 121.7453,462.5911 L 120.5199,457.1902 L 116.4674,452.3913 L 118.5406,445.725 L 118.8726,442.5213 L 118.3818,438.3789 L 122.9473,434.4076 L 119.6588,430.3577 L 123.0823,426.0939 L 122.6625,422.5107 L 125.1588,418.53 L 127.8843,417.2949 L 127.6645,415.2781 L 126.1904,413.203 L 127.1392,410.0732 L 126.6767,406.8112 L 129.2496,405.6002 L 129.1358,403.4388 L 127.6212,400.6683 L 130.3112,398.5738 L 132.526,393.148 L 132.2839,392.14 L 129.9336,390.7874 L 130.164,356.3887 L 131.1468,353.6913 L 136.383,345.8809 L 140.4228,332.1267 L 141.9907,329.56 L 146.7367,325.0442 L 148.1575,319.8541 L 147.1082,307.9152 L 138.6933,298.3602 L 136.8766,295.2553 L 128.6577,289.3279 L 124.7318,282.8723 L 122.4521,281.5478 L 122.4549,277.3081 L 121.4061,276.3577 L 121.9696,274.421 L 121.265,272.7247 L 122.4005,270.9381 L 122.2467,266.7482 L 123.5459,265.8826 L 124.5303,263.8642 L 126.6073,262.5661 L 128.1975,259.2481 L 133.0701,235.4831 L 135.352,229.8396 L 138.4424,225.8402 L 143.7424,221.9529 L 144.9234,219.5815 L 144.577,199.6003 L 145.3315,182.9715 L 138.6833,174.0496 L 137.202,170.6102 L 136.232,165.3929 L 138.7,159.9858 L 142.622,147.1245 L 285.3973,143.5047 L 297.1507,144.0662 L 299.9923,143.213 L 306.2479,144.0468 L 350.8463,144.5951 L 418.8377,142.5986 L 531.9971,144.0538 L 560.8362,145.2601 L 562.5746,145.5386 L 579.6958,149.0969 L 638.7521,148.9079 L 705.5475,151.879 L 737.9567,152.2998 L 799.231,150.745 L 848.5521,150.9169 L 917.6627,149.0541 L 935.5363,149.4959 L 1019.8949,146.6974 L 1185.3674,144.9482 L 1184.4242,146.5341 L 1179.0885,148.2242 L 1177.917,149.7331 L 1176.6345,153.79 L 1173.8145,153.7947 L 1172.1533,154.9473 L 1168.5421,151.9762 L 1166.7732,152.5261 L 1165.277,150.2511 L 1163.5303,149.121 L 1161.2161,149.4181 L 1158.1635,152.1458 L 1152.3793,153.9479 L 1149.0763,156.0502 L 1145.6006,160.5427 L 1147.7299,162.6357 L 1144.6528,164.2713 L 1143.1044,168.0117 L 1145.2753,167.6617 L 1145.5234,170.4679 L 1147.983,171.4199 L 1148.4567,174.265 L 1150.929,176.5135 L 1151.5564,178.675 L 1153.061,180.2827 L 1153.1355,181.755 L 1152.8562,183.463 L 1154.9716,183.9514 L 1156.907,183.2413 L 1157.6277,187.7579 L 1157.1525,192.2993 L 1155.2736,194.74 L 1156.6522,195.6757 L 1156.0764,198.338 L 1157.7449,199.3483 L 1156.6888,202.7317 L 1153.8728,203.3632 L 1157.0403,206.234 L 1157.1464,208.6661 L 1158.6155,210.6137 L 1157.2268,212.1529 L 1159.0186,212.9532 L 1163.5247,218.4132 L 1165.5679,221.956 L 1165.9871,224.6424 L 1169.7493,224.49 L 1168.168,226.4127 L 1168.7826,229.9897 L 1165.6661,229.6677 L 1164.1371,232.1636 L 1161.8634,233.7308 L 1161.3632,236.04 L 1158.2484,237.7581 L 1158.5905,239.3767 L 1160.033,240.7767 L 1157.5594,243.4157 L 1157.0259,245.371 L 1155.4318,245.2613 L 1153.4214,249.1665 L 1150.2039,250.6684 L 1149.9934,253.9491 L 1147.6837,256.494 L 1140.4592,259.8307 L 1138.5005,262.8235 L 1138.3362,264.6809 L 1139.6104,268.0238 L 1136.0692,271.159 L 1134.9788,273.3368 L 1137.3201,277.8557 L 1137.5771,282.3606 L 1134.1681,284.7654 L 1131.6241,292.7361 L 1130.547,293.2642 L 1125.3418,294.9154 L 1123.2798,299.2912 L 1123.5284,301.21 L 1125.4795,302.3681 L 1127.9885,305.6356 L 1125.5367,311.7287 L 1126.4473,315.5336 L 1125.5272,318.2115 L 1123.8367,319.466 L 1121.9933,322.8275 L 1119.8291,322.6362 L 1114.6067,324.5908 L 1112.855,327.2018 L 1113.1559,330.2406 L 1110.1311,332.1624 L 1108.8396,335.0192 L 1106.9852,336.9185 L 1104.1302,338.0775 L 1103.1609,341.2889 L 1103.2969,343.0016 L 1101.1798,345.1008 L 1093.5828,347.4279 L 1092.579,349.2339 L 1093.011,351.0165 L 1095.4517,352.3224 L 1096.5033,355.1637 L 1095.771,357.3811 L 1096.5898,360.2581 L 1095.9475,366.6888 L 1097.3411,367.6431 L 1099.8418,366.3061 L 1100.9366,366.5573 L 1100.0833,371.6277 L 1103.4679,373.9664 L 1103.4879,375.921 L 1105.7043,378.0342 L 1107.6509,382.3478 L 1110.7723,384.755 L 1111.2181,386.3681 L 1110.0073,389.6534 L 1113.8433,391.6772 L 1111.5802,394.9384 L 1112.3425,398.748 L 1113.7888,401.7805 L 1112.3142,405.9315 L 1120.7268,409.7302 L 1120.1145,410.9708 L 1117.1656,412.2751 L 1118.8003,416.8469 L 1117.2817,419.1452 L 1117.45,420.2217 L 1120.0278,423.1959 L 1124.1958,423.2433 L 1124.6317,424.5088 L 1121.4998,426.1452 L 1123.1598,427.2442 L 1127.6327,427.5522 L 1129.4265,424.7818 L 1131.0856,425.9453 L 1131.5542,429.9641 L 1133.8733,434.0428 L 1132.8079,436.1016 L 1130.5475,436.3777 L 1130.5775,437.6968 L 1136.1102,443.002 L 1138.4677,442.631 L 1139.9618,443.5231 L 1137.0275,445.4225 L 1135.842,443.7479 L 1134.2386,443.7697 L 1134.4001,445.3789 L 1139.3561,446.9243 L 1140.4287,448.686 L 1139.4277,449.6139 L 1136.3823,447.2759 L 1134.8265,453.3612 L 1136.4379,461.8826 L 1134.9465,464.1288 L 1131.7952,464.324 L 1131.8201,466.0608 L 1134.3879,466.8619 L 1137.9525,465.8445 L 1138.0057,466.8541 L 1136.2385,467.964 L 1135.4884,471.7113 L 1140.3682,468.7068 L 1141.0433,470.323 L 1139.8885,473.4473 L 1140.9529,473.6534 L 1144.5696,470.9818 L 1145.1814,472.4938 L 1143.9116,475.5917 L 1144.9832,476.2473 L 1146.7776,475.8102 L 1144.7112,480.7787 L 1140.6381,484.0881 L 1138.6975,484.1682 L 1136.8104,481.5704 L 1136.1086,483.6456 L 1139.3516,487.5749 L 1139.6025,489.1857 L 1137.8358,490.8625 L 1133.8628,490.0832 L 1133.8472,493.6719 L 1132.5341,495.0719 L 1127.9907,495.8691 L 1123.6317,494.0437 L 1116.2135,493.5101 L 1114.4418,494.5967 L 1112.3075,498.3199 L 1111.9456,502.3099 L 1118.0674,507.7994 L 1123.614,511.2707 L 1126.349,514.633 L 1125.2213,518.994 L 1121.115,525.7008 L 1118.26,527.3668 L 1114.3518,526.7695 L 1113.9988,527.9556 L 1115.0248,530.3083 L 1118.3444,533.0204 L 1120.3093,538.034 L 1123.403,540.7897 L 1123.3375,543.1082 L 1119.5304,542.8811 L 1117.9924,539.4682 L 1118.1351,541.6235 L 1118.3877,545.2222 L 1116.39,546.049 L 1115.1958,543.8098 L 1113.8333,544.026 L 1113.4391,549.5148 L 1111.1638,555.1879 L 1105.2379,556.962 L 1100.6407,555.6514 L 1097.0519,563.8765 L 1093.077,564.9607 L 1090.9822,563.5358 L 1091.3092,560.5102 L 1095.068,559.804 L 1096.4127,558.2298 L 1095.4562,557.0818 L 1092.2336,557.0475 L 1091.2159,559.6407 L 1084.4301,565.2874 L 1084.3523,567.8206 L 1088.4332,570.6159 L 1088.7891,572.1248 L 1085.8575,575.3611 L 1081.7339,574.8773 L 1080.3325,576.471 L 1079.1366,579.3208 L 1078.3677,586.7929 L 1076.6315,591.1601 L 1074.0425,593.6685 L 1067.1489,594.8017 L 1068.2655,599.7398 L 1067.7014,601.3405 L 1064.5177,600.9578 L 1063.6383,603.8317 L 1058.1721,607.1403 L 1053.4806,611.6896 L 1046.9851,614.7983 L 1040.6201,613.6946 L 1035.2511,614.4406 L 1033.6948,615.867 L 1031.5784,620.9389 L 1027.4115,620.7017 L 1023.7703,617.2437 L 1020.5084,616.7568 L 1017.2205,617.9872 L 1011.2657,622.3785 L 1004.5615,622.02 L 1002.3967,623.0833 L 997.4547,628.53 L 997.4542,629.7014 L 994.4899,634.774 L 991.4028,636.2751 L 990.6339,641.3058 L 992.6265,644.0132 L 990.4556,647.0225 L 992.6143,655.3898 L 991.4234,657.5792 L 980.9242,661.0053 L 975.804,665.189 L 970.1713,668.2099 L 965.0006,668.8041 L 959.8576,671.4664 L 957.2709,670.9344 L 952.1729,667.4935 L 940.0336,662.4458 L 934.1899,663.8061 L 929.9402,667.3146 L 927.7072,670.7734 L 924.2177,672.1789 L 918.7943,670.6436 L 908.817,671.5676 L 898.8303,670.8333 L 896.8887,671.811 L 895.8644,675.6851 L 894.8666,676.8074 L 885.7516,681.632 L 877.7209,684.2461 L 872.2126,682.5793 L 870.1278,684.0975 L 869.7153,686.0101 L 869.8896,687.2297 L 870.9518,688.1568 L 870.1356,698.3146 L 867.1429,702.5558 L 863.9099,703.5833 L 862.6107,706.1896 L 858.8325,707.3586 L 855.6727,710.6019 L 850.6658,720.6555 L 850.3438,722.9335 L 851.2043,724.7886 L 852.4363,725.144 L 853.2709,724.0823 L 855.9287,723.2641 L 855.0603,725.0499 L 855.8443,727.0963 L 854.1553,728.399 L 854.6328,729.6147 L 855.2397,733.9313 L 857.8664,740.4686 L 860.5853,743.4724 L 861.8301,747.4981 L 858.4572,758.5651 L 859.1634,763.6572 L 857.4938,767.8596 L 855.8843,768.5573 L 855.0226,770.105 L 855.9198,771.4249 L 856.0586,774.5624 L 855.0381,777.4744 L 852.6595,779.5037 L 851.5703,785.5322 L 856.0292,792.6979 L 859.2028,803.3838 L 861.1249,804.8716 L 861.9905,807.5301 L 864.9321,807.6296 L 864.0848,811.2137 L 866.2413,811.097 L 865.6067,813.1371 L 864.4935,815.9146 L 865.0515,818.8196 L 865.0065,826.8221 L 869.8219,830.9078 L 868.4299,832.9961 L 867.6937,836.0574 L 865.3729,835.7736 L 861.1355,838.2142 L 859.9351,839.9214 L 858.7431,839.6298 L 858.6786,844.214 L 857.52,847.2598 L 859.2939,855.3378 L 861.744,858.3042 L 863.9055,857.8655 L 864.3702,854.602 L 866.1819,852.5557 L 869.9918,853.8227 L 871.4254,855.3813 L 871.1155,860.6516 L 870.2411,863.0658 L 868.275,864.4883 L 864.2642,864.7263 L 866.9747,867.923 L 870.2894,869.176 L 871.5903,871.3577 L 870.6503,872.858 L 868.8547,873.6513 L 866.9664,873.551 L 864.3763,871.5264 L 859.2023,873.6653 L 861.4337,876.9608 L 861.9122,879.2086 L 858.5188,884.1179 L 856.9714,888.097 L 850.6785,888.9424 L 850.4526,891.1 L 853.1415,892.2729 L 854.3541,894.8287 L 849.9879,896.399 L 845.1214,899.7917 L 844.5839,901.9251 L 847.1279,908.2757 L 846.2896,909.727 L 843.6089,911.1978 L 843.1626,916.2899 L 840.8712,917.1151 L 836.7482,914.0266 L 835.3351,916.3288 L 835.032,919.0067 L 835.6027,921.5236 L 837.8236,924.1198 L 837.9979,925.6458 L 836.5288,925.9647 L 836.6254,923.706 L 835.5577,921.7584 L 831.438,921.7849 L 829.5531,923.8888 L 830.7468,930.216 L 830.4686,931.4597 L 827.8075,932.8986 L 823.4268,937.0052 L 823.6511,939.7959 L 825.6771,942.4963 L 826.1757,944.3171 L 824.8637,958.181 L 826.7154,958.9992 L 829.577,956.6083 L 829.3959,957.7921 L 830.4586,956.9545 L 833.2925,957.5945 L 837.2567,958.9681 L 832.4674,962.0746 L 832.2281,963.7849 L 833.3208,965.1686 L 833.3841,966.3803 L 829.6392,972.3552 L 826.7409,974.0344 L 823.4946,974.1223 L 822.5262,975.2159 L 822.2714,978.8582 L 823.3874,984.9724 L 822.7056,992.8434 L 821.1998,996.2672 L 814.6816,1000.8234 L 812.8638,1003.8583 L 804.3651,1009.8488 L 801.0993,1014.8779 L 799.6485,1020.6606 L 797.5931,1021.6531 L 794.3512,1021.6189 L 792.9215,1023.183 L 792.4651,1027.4219 L 795.6909,1035.0154 L 791.8077,1037.407 L 786.5787,1038.6965 L 784.3395,1045.9937 L 787.1644,1054.1129 L 787.5137,1062.719 L 783.7849,1071.9271 L 787.0145,1080.8358 L 786.3389,1084.8997 L 782.6816,1088.8149 L 780.031,1095.934 L 774.6959,1100.8192 L 774.515,1102.5739 L 775.8236,1105.692 L 774.541,1107.1232 L 774.42,1111.4795 L 771.6006,1113.7747 L 766.8152,1115.9883 L 763.7953,1122.0409 L 760.1681,1127.3197 L 760.0099,1129.0868 L 757.3032,1131.4691 L 756.185,1131.7072 L 759.5224,1129.037 L 757.1439,1129.2345 L 755.7025,1131.8682 L 754.5959,1132.215 L 752.0009,1133.1974 L 741.7615,1139.9695 L 737.5524,1140.2867 L 735.5126,1145.0647 L 731.7316,1148.1384 L 725.9295,1158.0613 L 721.7715,1161.6733 L 721.6454,1163.7982 L 720.2474,1164.5394 L 718.463,1163.8434 L 719.3696,1165.1865 L 720.6544,1165.9224 L 718.8616,1170.2079 L 718.3819,1179.4954 L 720.3329,1182.6904 L 719.9382,1185.03 L 720.4751,1186.5568 L 719.1148,1188.6615 L 719.8365,1192.0012 L 718.4685,1191.4062 L 718.2625,1193.7318 L 714.4282,1199.3583 L 713.3816,1206.0074 L 714.0334,1210.6678 L 713.3172,1212.428 L 705.6113,1216.7843 L 705.4198,1218.8999 L 706.6607,1220.6958 L 705.4031,1222.5983 L 703.8158,1224.9456 L 702.491,1230.6987 L 702.4916,1233.1519 L 703.627,1236.4232 L 706.1077,1239.1252 L 706.2826,1243.1603 L 694.0628,1253.9908 L 690.4145,1255.0059 L 682.3339,1259.6157 L 677.6761,1264.613 L 677.2875,1271.9023 L 675.8201,1273.6429 L 676.7062,1279.5105 L 676.5096,1286.7284 L 677.1526,1290.4266 L 675.5275,1294.8522 L 672.3144,1300.2375 L 669.4711,1300.9111 L 667.0587,1311.7728 L 667.8765,1315.4182 L 674.7151,1322.0208 L 676.8688,1327.3602 L 677.1981,1330.0272 L 676.4086,1337.707 L 675.4714,1341.4154 L 670.425,1347.6058 L 671.4982,1360.1583 L 669.5966,1365.2598 L 668.6711,1370.0237 L 668.5284,1375.9091 L 666.2764,1388.1396 L 664.145,1406.2728 L 658.9575,1412.2096 L 657.3901,1417.3826 L 657.8776,1426.5254 L 658.8337,1428.9792 L 664.0683,1432.5905 L 670.6082,1432.7716 L 671.7559,1433.502 L 671.3022,1435.0125 L 665.7162,1442.175 L 660.5127,1453.1417 L 661.4327,1456.2535 L 664.855,1461.9266 L 667.5828,1464.5057 L 668.7805,1467.6714 L 664.8223,1476.2004 L 661.8991,1491.0817 L 657.1964,1501.1982 L 654.2776,1506.2118 L 646.3408,1510.4242 L 644.7434,1514.5675 L 644.5035,1520.3821 L 647.187,1531.0043 L 644.6374,1536.9713 L 643.3665,1542.0292 L 644.7285,1548.9989 L 644.6285,1554.2722 L 638.269,1561.4877 L 639.1119,1564.871 L 641.7225,1568.8533 L 641.939,1571.0341 L 641.4648,1572.473 L 639.1613,1574.1492 L 636.7472,1577.3544 L 637.4951,1582.3772 L 637.2513,1592.017 L 634.3047,1595.965 L 637.5445,1603.5538 L 640.0274,1604.6995 L 642.0406,1603.9948 L 643.9222,1604.9382 z" fill="none" stroke="black" stroke-width="120" stroke-linecap="round" stroke-linejoin="round"/>
</svg>
